<?xml version="1.0" encoding="utf-8"?>
<!-- Generator: Adobe Illustrator 16.0.0, SVG Export Plug-In . SVG Version: 6.00 Build 0)  -->
<!DOCTYPE svg PUBLIC "-//W3C//DTD SVG 1.1//EN" "http://www.w3.org/Graphics/SVG/1.1/DTD/svg11.dtd">
<svg version="1.1" id="Calque_1" xmlns="http://www.w3.org/2000/svg" xmlns:xlink="http://www.w3.org/1999/xlink" x="0px" y="0px"
	 width="45px" height="29.25px" viewBox="0 0 45 29.25" enable-background="new 0 0 45 29.25" xml:space="preserve">
<g>
	<path fill-rule="evenodd" clip-rule="evenodd" fill="#FFFFFF" d="M2.524,0C2.011,1.261,1.555,2.419,1.066,3.557
		C0.913,3.912,0.926,4.118,1.179,4.41c1.627,1.88,3.233,3.786,4.847,5.683c4.998,5.877,9.995,11.756,14.996,17.631
		c0.848,0.997,1.887,1,2.736,0.011c1.266-1.475,2.521-2.964,3.781-4.446c4.444-5.223,8.892-10.442,13.333-15.67
		c1.057-1.244,2.093-2.511,3.161-3.794c-0.613-1.199-1.239-2.422-1.888-3.69c-6.603,7.546-13.168,15.048-19.75,22.571
		C15.76,15.124,9.167,7.589,2.524,0z"/>
	<path fill-rule="evenodd" clip-rule="evenodd" fill="#575757" d="M2.524,0C9.167,7.589,15.76,15.124,22.395,22.705
		c6.582-7.522,13.147-15.024,19.75-22.571c0.649,1.269,1.275,2.492,1.888,3.69c-1.067,1.283-2.104,2.551-3.161,3.794
		c-4.441,5.228-8.889,10.447-13.333,15.67c-1.261,1.482-2.516,2.971-3.781,4.446c-0.849,0.989-1.888,0.985-2.736-0.011
		c-5.001-5.875-9.998-11.753-14.996-17.631C4.413,8.196,2.806,6.291,1.179,4.41C0.926,4.118,0.913,3.912,1.066,3.557
		C1.555,2.419,2.011,1.261,2.524,0z"/>
</g>
</svg>
