<svg width="256" height="256" viewBox="0 0 256 256" fill="none" xmlns="http://www.w3.org/2000/svg">
<path d="M135.989 217.2C178.269 217.2 212.543 207.407 212.543 195.328C212.543 183.248 178.269 173.455 135.989 173.455C93.7097 173.455 59.4355 183.248 59.4355 195.328C59.4355 207.407 93.7097 217.2 135.989 217.2Z" fill="#F5F5F5"/>
<path d="M208.825 110.241C208.825 110.241 195.264 123.802 202.919 143.925C210.574 164.048 189.795 197.513 189.795 197.513C189.795 197.513 190.014 197.48 190.432 197.408C218.284 192.491 232.123 160.636 216.635 136.972C210.885 128.175 206.15 117.853 208.825 110.241Z" fill="#82DB35"/>
<path d="M208.825 110.241C208.825 110.241 201.169 126.864 208.825 140.425C216.48 153.986 210.137 192.044 189.795 197.513" stroke="#535461" stroke-width="2" stroke-miterlimit="10"/>
<path d="M232.976 165.091C232.976 165.091 217.501 162.626 216.091 176.495C214.68 190.365 186.344 192.285 186.344 192.285C186.344 192.285 186.528 192.412 186.875 192.639C210.279 208.003 232.652 202.425 229.282 182.025C228.02 174.441 228.12 166.823 232.976 165.091Z" fill="#82DB35"/>
<path opacity="0.2" d="M232.976 165.091C232.976 165.091 217.501 162.626 216.091 176.495C214.68 190.365 186.344 192.285 186.344 192.285C186.344 192.285 186.528 192.412 186.875 192.639C210.279 208.003 232.652 202.425 229.282 182.025C228.02 174.441 228.12 166.823 232.976 165.091Z" fill="#F5F5F5"/>
<path d="M232.976 165.091C232.976 165.091 220.964 167.729 221.95 178.652C222.937 189.575 204.104 202.664 186.335 192.281" stroke="#535461" stroke-width="2" stroke-miterlimit="10"/>
<path opacity="0.2" d="M56.1152 58.0187C54.3523 57.9574 52.5456 58.0187 50.8921 58.6355C46.3929 60.3131 44.2603 65.8009 44.9537 70.5538C45.647 75.3067 48.4992 79.434 51.4586 83.2158C54.4179 86.9975 57.6244 90.7312 59.2474 95.2456C60.0566 97.5007 60.435 100.027 59.6126 102.278C58.344 105.749 54.5185 107.689 50.8461 108.091C47.1737 108.494 43.486 107.709 39.8005 107.435C38.2541 107.326 36.664 107.313 35.2073 107.82C33.6084 108.374 32.2764 109.502 31.0515 110.679C26.2724 115.294 22.4469 121.593 23.0659 128.207C23.7658 135.705 30.0082 141.633 36.8456 144.811C39.1094 145.865 41.5044 146.718 43.497 148.223C48.7464 152.191 49.9253 159.625 49.4025 166.189C48.8798 172.753 47.0994 179.323 48.0902 185.831C49.256 193.398 54.4157 200.234 61.3756 203.427C67.5764 206.27 75.3368 206.093 80.8421 202.071C83.5258 200.102 85.5556 197.388 87.3207 194.573C89.9849 190.326 92.1465 185.784 93.7621 181.038C94.5299 178.783 95.2517 176.358 97.043 174.789C98.1366 173.825 99.554 173.284 100.956 172.865C105.182 171.6 109.633 171.253 113.898 170.128C118.163 169.004 122.454 166.909 124.773 163.162C128.054 157.845 126.523 151.045 126.538 144.789C126.564 130.537 135.092 117.776 138.24 103.887C139.268 99.3467 139.651 94.3226 137.354 90.274C135.792 87.5115 133.161 85.543 130.394 84.0119C124.314 80.6348 117.402 79.1322 110.602 77.6689C101.151 75.6392 89.6742 75.3767 82.3491 68.8106C75.3193 62.5113 65.7019 58.0187 56.1152 58.0187Z" fill="#82DB35"/>
<g opacity="0.5">
<path opacity="0.5" d="M90.3982 113.183C90.3976 109.748 89.8596 106.334 88.8036 103.065L86.1789 94.9263C86.1789 94.7907 86.1789 94.6573 86.1789 94.5239C86.2599 89.3073 82.1938 86.7045 80.6277 86.9866C79.0245 87.2753 74.5756 85.0443 74.5756 85.0443V85.1056C74.2706 84.7545 73.9955 84.3784 73.7532 83.9813C74.5218 83.4215 75.1708 82.7137 75.662 81.8994C76.1532 81.0852 76.4767 80.181 76.6134 79.24C76.7502 78.2989 76.6974 77.34 76.4582 76.4197C76.2191 75.4993 75.7984 74.6361 75.2208 73.8806C75.7017 73.5193 76.0684 73.0273 76.2773 72.4633C76.6403 71.4418 76.3626 70.276 75.772 69.3661C75.5209 68.9863 75.2274 68.6363 74.8971 68.3228C74.3969 67.8272 73.8505 67.3805 73.2654 66.9886C71.8065 65.9781 70.2033 65.1098 68.4535 64.8014C68.1507 64.7299 67.8354 64.7299 67.5326 64.8014C67.2699 64.9074 67.0197 65.0424 66.7868 65.2038C65.5882 65.8862 64.0965 65.591 62.7141 65.5188C61.3318 65.4466 59.652 65.8337 59.2145 67.1308C59.0789 67.531 59.0877 67.9641 58.9958 68.3753C58.7771 69.3815 58.0006 70.1623 57.4013 71C56.802 71.8377 56.3536 72.9685 56.8523 73.8784C57.0229 74.1847 57.2898 74.4668 57.2898 74.8168C57.2898 75.0683 57.141 75.2936 57.071 75.5342C56.9201 76.081 57.2045 76.6278 57.6419 77.0237C57.8304 77.2269 58.0523 77.3963 58.2981 77.5246C58.9914 77.8789 59.7898 77.9883 60.4963 78.3164C60.8489 78.482 61.1724 78.7036 61.4543 78.9725C61.7995 79.334 62.0694 79.7605 62.2481 80.2273C62.4269 80.694 62.511 81.1917 62.4954 81.6913L62.642 81.7066C62.642 81.7504 62.642 81.7919 62.642 81.8357C62.7951 81.8532 62.9569 81.8685 63.1166 81.875C63.3463 82.2458 63.6091 82.595 63.9018 82.9183C63.8522 83.105 63.7961 83.2946 63.7334 83.487C63.2194 83.8436 59.0155 86.6432 54.2342 85.9696C49.1313 85.25 46.2135 107.56 46.2135 107.56C46.0244 108.836 45.9323 110.124 45.9379 111.414C45.9161 114.695 46.6051 118.988 50.4437 118.356L52.4844 117.685V128.719C52.4844 128.719 52.7753 131.742 51.756 133.75C50.7368 135.758 54.9647 135.045 54.9647 135.045C54.9647 135.045 55.1266 135.213 55.424 135.5L55.33 135.764L55.4547 135.891C54.8986 137.792 54.1488 139.631 53.2171 141.379L53.3374 141.44C53.2609 141.587 53.2171 141.659 53.2171 141.659C53.2171 141.659 54.7875 142.462 56.9485 143.496C58.6852 149.367 62.4867 162.963 61.2356 165.553L61.2706 165.627C61.5046 166.113 62.8126 168.976 62.5479 171.598C62.3095 173.943 65.5554 184.597 66.7671 188.466L66.1941 188.582L68.2348 195.923L67.7973 200.673C67.7973 200.673 65.3192 207.294 71.1504 205.999C76.9816 204.704 75.3783 199.378 75.3783 199.378L75.5249 188.582C75.5249 188.582 74.9627 188.269 74.2694 187.97C73.7926 186.681 72.7536 183.637 72.7536 181.53C72.7536 178.796 70.8573 166.992 70.8573 166.992V166.968V166.922V166.909L70.8463 166.751V166.725C70.8463 166.578 70.8223 166.377 70.8048 166.132V166.119C70.586 162.928 69.9299 152.086 70.4089 146.434C70.8301 146.147 71.2684 145.885 71.7212 145.651C73.1408 149.238 76.8 158.93 76.566 162.996C76.2751 168.026 76.4938 164.076 76.566 163.433C76.5879 163.234 76.6032 163.475 76.6097 164.015C76.6097 164.113 76.6097 164.223 76.6097 164.339C76.6097 164.455 76.6097 164.584 76.6097 164.717C76.6097 164.85 76.6097 164.995 76.6097 165.155C76.6097 165.23 76.6097 165.308 76.6097 165.386C76.6097 165.544 76.6097 165.709 76.6097 165.881C76.6097 165.967 76.6097 166.054 76.6097 166.143C76.6097 166.581 76.6097 167.066 76.5944 167.571C76.5944 167.672 76.5944 167.774 76.5944 167.878C76.5944 168.186 76.5944 168.501 76.5791 168.82C76.5791 169.258 76.5616 169.682 76.5529 170.122C76.531 171.106 76.5026 172.101 76.4676 173.033C76.4676 173.137 76.4639 173.239 76.4566 173.341C76.4493 173.546 76.4413 173.745 76.4326 173.941C76.4238 174.136 76.4151 174.327 76.4063 174.514C76.3976 174.699 76.3881 174.879 76.3779 175.054C76.3669 175.26 76.3538 175.456 76.3429 175.645L75.5511 175.531L75.3827 177.351C75.1174 180.24 75.4907 183.152 76.4763 185.881C76.7475 186.629 76.9575 187.248 77.0034 187.469C77.15 188.188 77.0034 193.374 77.0034 193.374C77.0034 193.374 77.8783 200.14 81.9619 198.843C83.7992 198.259 84.6916 196.482 85.1181 194.702C85.5914 192.638 85.4149 190.478 84.6129 188.519C84.0333 187.062 83.4405 185.019 83.8583 183.44C84.5866 180.706 84.5866 176.819 84.5866 176.819L84.1361 176.756C84.2484 176.542 84.3498 176.323 84.4401 176.1C84.4401 176.1 84.2935 166.167 85.6059 164.872C86.3277 164.159 86.2621 162.447 86.0433 161.047C85.7309 159.021 85.6575 156.966 85.8246 154.923C85.9143 153.871 86.0433 152.954 86.1943 152.628C86.5792 151.867 86.9642 144.194 85.2603 140.502L85.6103 140.393L85.5556 140.121L85.6103 140.104C85.8673 140.79 86.1593 141.462 86.4852 142.118C86.5712 142.186 86.6702 142.235 86.7761 142.263C91.4983 141.434 91.6886 137.027 91.4262 134.621C91.6252 134.717 91.7346 134.778 91.7346 134.778L92.172 128.435C92.6204 127.422 92.7866 126.13 92.7757 124.732C92.7954 119.736 90.3982 113.183 90.3982 113.183ZM85.1925 131.213C84.8688 128.45 84.4204 125.85 84.4204 125.85L82.2331 118.076V115.246L85.7021 128.194L85.1925 131.213Z" fill="url(#paint0_linear)"/>
</g>
<path d="M75.3586 173.674L75.1968 175.452C74.9414 178.277 75.3033 181.125 76.2576 183.796C76.5179 184.529 76.7213 185.133 76.765 185.349C76.905 186.054 76.765 191.117 76.765 191.117C76.765 191.117 77.6093 197.729 81.5485 196.463C83.3202 195.894 84.1732 194.155 84.5932 192.416C85.0485 190.4 84.8775 188.292 84.1032 186.375C83.5433 184.951 82.9703 182.95 83.3749 181.412C84.0792 178.739 84.0792 174.942 84.0792 174.942L75.3586 173.674Z" fill="#5A5773"/>
<path d="M71.1394 143.149C71.1394 143.149 76.625 156.513 76.3429 161.434C76.0607 166.355 76.2729 162.488 76.3429 161.856C76.4676 160.73 76.3429 174.105 75.9208 175.636C75.9208 175.636 81.6885 179.855 83.9392 174.229C83.9392 174.229 83.7992 164.525 85.0635 163.258C85.759 162.563 85.6912 160.887 85.4856 159.52C85.1821 157.543 85.1087 155.537 85.2669 153.542C85.3522 152.514 85.4703 151.609 85.6234 151.3C86.0455 150.456 86.4677 140.891 83.9348 138.219L71.1394 143.149Z" fill="#605D82"/>
<path opacity="0.1" d="M76.625 175.642C77.0472 174.096 77.1719 160.73 77.0472 161.863C76.9772 162.495 76.765 166.364 77.0472 161.441C77.3293 156.517 71.8437 143.155 71.8437 143.155L84.1164 138.435C84.0595 138.363 84.0004 138.295 83.9414 138.232L71.1416 143.155C71.1416 143.155 76.6272 156.519 76.3451 161.441C76.0629 166.362 76.2751 162.495 76.3451 161.863C76.4697 160.736 76.3451 174.111 75.9229 175.642C75.9229 175.642 78.2261 177.327 80.4899 177.147C78.4755 176.996 76.625 175.642 76.625 175.642Z" fill="black"/>
<path d="M66.3559 186.474L68.3244 193.648L67.9023 198.289C67.9023 198.289 65.5116 204.759 71.1372 203.493C76.7628 202.226 75.2165 197.023 75.2165 197.023L75.3564 186.474C75.3564 186.474 73.1058 185.207 72.1215 185.349C71.1372 185.492 66.3559 186.474 66.3559 186.474Z" fill="#5A5773"/>
<path d="M56.6511 139.774C56.6511 139.774 63.121 160.732 61.5746 163.967C61.5746 163.967 63.121 167.062 62.841 169.872C62.561 172.683 67.3424 187.736 67.3424 187.736L74.3766 186.469C74.3766 186.469 72.688 182.25 72.688 179.577C72.688 176.904 70.8595 165.36 70.8595 165.36C70.8595 165.36 69.3131 144.26 71.1416 142.009L56.6511 139.774Z" fill="#605D82"/>
<g opacity="0.1">
<path opacity="0.1" d="M70.5948 143.724C69.429 148.501 70.7173 166.08 70.7173 166.08C70.7173 166.08 72.5458 177.613 72.5458 180.297C72.5458 182.338 73.5279 185.277 73.9938 186.555L74.3744 186.487C74.3744 186.487 72.6858 182.268 72.6858 179.595C72.6858 176.922 70.8573 165.378 70.8573 165.378C70.8573 165.378 69.6805 149.312 70.5948 143.724Z" fill="black"/>
<path opacity="0.1" d="M61.5746 163.967L61.6096 164.039C61.6205 163.967 61.6315 163.89 61.638 163.82C61.6194 163.87 61.5982 163.919 61.5746 163.967Z" fill="black"/>
<path opacity="0.1" d="M70.8223 142.7C70.8862 142.458 70.9936 142.229 71.1394 142.024L56.6511 139.774C56.6511 139.774 56.7364 140.047 56.8829 140.535L70.8223 142.7Z" fill="black"/>
</g>
<path d="M90.4091 132.177C90.4091 132.177 92.5198 140.051 86.1899 141.18C86.0872 141.153 85.9911 141.106 85.9077 141.04C85.9077 141.04 82.2506 133.866 85.0634 131.053L90.4091 132.177Z" fill="#A1616A"/>
<path d="M64.5274 79.8562C64.5274 79.8562 64.9495 85.7618 60.3082 88.5768C55.6668 91.3917 70.1508 99.1259 70.1508 99.1259L77.7471 87.0282C77.7471 87.0282 74.5143 87.446 72.5458 81.8247L64.5274 79.8562Z" fill="#A1616A"/>
<path opacity="0.1" d="M61.4324 88.9946C61.4324 88.9946 68.6066 103.905 75.0765 89.8388L85.0634 139.349C85.0634 139.349 69.5887 144.133 69.4509 146.384C69.3131 148.634 53.8405 140.618 53.8405 140.618C53.8405 140.618 57.2154 134.428 56.3733 130.631C55.5312 126.834 61.4324 88.9946 61.4324 88.9946Z" fill="black"/>
<path d="M61.4324 88.7124C61.4324 88.7124 68.6066 103.623 75.0765 89.5567L85.0634 139.069C85.0634 139.069 69.5887 143.853 69.4509 146.104C69.3131 148.354 53.8405 140.336 53.8405 140.336C53.8405 140.336 57.2154 134.146 56.3733 130.349C55.5312 126.552 61.4324 88.7124 61.4324 88.7124Z" fill="#E1E7EF"/>
<path d="M68.4666 190.413C68.4666 190.413 66.6381 186.334 70.8573 186.334C75.0765 186.334 74.3744 189.991 74.3744 189.991L68.4666 190.413Z" fill="#5A5773"/>
<path d="M78.0314 179.862C78.0314 179.862 76.3429 175.5 80.5643 175.36C84.7857 175.22 82.675 179.297 82.675 179.297L78.0314 179.862Z" fill="#5A5773"/>
<path opacity="0.1" d="M74.4444 85.543C74.4444 85.543 78.7335 87.7303 80.2821 87.4416C81.8307 87.1528 85.9077 89.8322 85.6277 95.1779L88.1693 103.153C89.186 106.35 89.7025 109.686 89.7004 113.041C89.7004 113.041 93.3575 123.168 91.389 127.669L90.9668 133.859C90.9668 133.859 87.7319 132.031 84.3548 132.593L85.2056 127.538L81.3998 113.188L75.0699 97.8551L74.4444 85.543Z" fill="black"/>
<path d="M74.4444 85.2652C74.4444 85.2652 78.7335 87.4524 80.2821 87.1637C81.8307 86.875 85.9077 89.5544 85.6277 94.9L88.1693 102.875C89.186 106.072 89.7025 109.408 89.7004 112.763C89.7004 112.763 93.3575 122.89 91.389 127.392L90.9668 133.582C90.9668 133.582 87.7319 131.753 84.3548 132.315L85.199 127.252L81.3998 112.905L75.0765 97.5728L74.4444 85.2652Z" fill="#67647E"/>
<path opacity="0.1" d="M81.5485 102.356V118.251L83.6592 125.847C83.6592 125.847 85.0656 134.146 84.6435 136.679C84.2213 139.212 77.4693 139.774 75.6408 137.663C73.8122 135.552 74.7965 117.54 74.7965 117.54L74.4444 91.173L74.7265 90.3287L81.5485 102.356Z" fill="black"/>
<path d="M81.8373 101.654V117.549L83.948 125.145C83.948 125.145 85.3544 133.444 84.9322 135.977C84.5101 138.509 77.758 139.072 75.9295 136.961C74.101 134.85 75.0852 116.838 75.0852 116.838L74.7331 90.4643L81.8373 101.654Z" fill="#67647E"/>
<path opacity="0.1" d="M53.4861 114.876L57.9875 128.875L55.8768 134.852C55.8768 134.852 65.8638 145.401 72.1937 140.338C72.1937 140.338 72.898 118.815 71.4894 113.752C70.0808 108.688 63.3309 91.6608 63.3309 91.6608L61.9333 87.166L54.4792 91.3852L53.4861 114.876Z" fill="black"/>
<path d="M53.134 114.172V127.952C53.134 127.952 53.4162 130.907 52.4297 132.875C51.4433 134.844 55.5247 134.142 55.5247 134.142C55.5247 134.142 65.5116 144.691 71.8415 139.627C71.8415 139.627 72.5458 118.105 71.1372 113.041C69.7287 107.978 62.9788 90.9499 62.9788 90.9499L61.5724 86.4485L54.1183 90.6677L53.134 114.172Z" fill="#67647E"/>
<path opacity="0.1" d="M64.0352 84.001C64.0352 84.001 59.746 87.1659 54.8225 86.4616C49.8991 85.7573 47.0863 107.562 47.0863 107.562C47.0863 107.562 45.2577 118.815 51.1655 117.831L64.2474 113.47C64.2474 113.47 61.4346 110.515 61.8567 106.718L55.5247 109.248L55.809 97.1529L64.0352 84.001Z" fill="black"/>
<path opacity="0.1" d="M47.3662 107.28C47.3662 107.28 45.5377 118.533 51.4454 117.549L64.5274 113.188C64.5274 113.188 61.7146 110.235 62.1367 106.436L55.809 108.968L47.3662 107.28Z" fill="black"/>
<path d="M61.8261 107.919C61.8261 107.919 66.2159 102.146 69.4487 104.918C72.6814 107.689 62.9854 112.768 62.9854 112.768L61.8261 107.919Z" fill="#A1616A"/>
<path d="M64.0352 83.7189C64.0352 83.7189 59.746 86.8838 54.8225 86.1795C49.8991 85.4752 47.0863 107.28 47.0863 107.28C47.0863 107.28 45.2577 118.533 51.1655 117.549L64.2474 113.188C64.2474 113.188 61.4346 110.233 61.8567 106.436L55.5247 108.968L55.809 96.8708L62.9832 90.9652L64.0352 83.7189Z" fill="#67647E"/>
<path opacity="0.1" d="M72.6858 82.1003L64.6674 80.1318C64.6674 80.1318 65.0851 80.6042 64.5974 82.4524C65.8878 83.9332 67.4736 85.8996 69.5909 85.8996C71.106 85.9024 72.5812 85.4135 73.7947 84.5063C73.3419 83.7453 72.9702 82.9389 72.6858 82.1003Z" fill="black"/>
<path d="M69.4509 85.6196C73.3357 85.6196 76.4851 82.4703 76.4851 78.5854C76.4851 74.7005 73.3357 71.5512 69.4509 71.5512C65.566 71.5512 62.4167 74.7005 62.4167 78.5854C62.4167 82.4703 65.566 85.6196 69.4509 85.6196Z" fill="#A1616A"/>
<path opacity="0.1" d="M72.1171 75.532C73.7488 75.2542 75.5424 74.5302 76.0892 72.9685C76.4391 71.9689 76.1723 70.8316 75.6014 69.9414C75.0305 69.0511 74.1906 68.3665 73.3245 67.7541C71.9181 66.7655 70.3673 65.9168 68.6744 65.6194C68.3825 65.5496 68.0783 65.5496 67.7864 65.6194C67.5325 65.7233 67.2912 65.8553 67.0668 66.0131C65.9097 66.6802 64.4705 66.3915 63.1297 66.3215C61.7889 66.2515 60.1813 66.6299 59.7592 67.8963C59.6279 68.2878 59.6367 68.7099 59.5404 69.1124C59.3217 70.0967 58.5802 70.8622 58.0094 71.6824C57.4385 72.5026 56.9989 73.6116 57.4801 74.4952C57.6441 74.7949 57.9175 75.0705 57.9175 75.4117C57.8753 75.6542 57.8018 75.8902 57.6988 76.1138C57.4997 76.8399 58.0794 77.5727 58.7487 77.9183C59.418 78.2638 60.1879 78.371 60.8703 78.6925C61.509 79.0077 62.0438 79.4997 62.411 80.1101C62.7782 80.7204 62.9624 81.4233 62.9416 82.1353C63.5628 82.2075 64.2868 82.2446 64.7067 81.7809C64.8948 81.5732 64.9867 81.2954 65.1573 81.0745C65.376 80.7857 65.7172 80.6151 65.9972 80.3833C67.4692 79.1737 66.4237 77.5027 67.2571 76.1991C67.6945 75.5276 68.39 75.7332 69.0943 75.7441C70.1063 75.7678 71.1183 75.6968 72.1171 75.532Z" fill="black"/>
<path d="M71.9771 75.392C73.6088 75.1142 75.4024 74.3903 75.9492 72.8286C76.2991 71.829 76.0323 70.6916 75.4614 69.8014C74.8906 68.9112 74.0506 68.2266 73.1845 67.6142C71.7781 66.6255 70.2273 65.7769 68.5344 65.4794C68.2425 65.4096 67.9383 65.4096 67.6464 65.4794C67.3925 65.5833 67.1512 65.7154 66.9268 65.8731C65.7697 66.5402 64.3305 66.2515 62.9897 66.1815C61.6489 66.1115 60.0413 66.4899 59.6192 67.7563C59.488 68.1478 59.4967 68.57 59.4005 68.9724C59.1817 69.9567 58.4403 70.7222 57.8694 71.5425C57.2985 72.3627 56.8589 73.4716 57.3401 74.3553C57.5041 74.6549 57.7775 74.9305 57.7775 75.2717C57.7353 75.5142 57.6618 75.7502 57.5588 75.9738C57.3598 76.7 57.9394 77.4327 58.6087 77.7783C59.278 78.1239 60.0479 78.2311 60.7303 78.5526C61.3716 78.8675 61.9087 79.3604 62.2772 79.9725C62.6457 80.5846 62.83 81.2899 62.8082 82.0041C63.4294 82.0762 64.1534 82.1134 64.5733 81.6497C64.7614 81.4419 64.8533 81.1642 65.0239 80.9433C65.2426 80.6545 65.5838 80.4839 65.8638 80.2521C67.3358 79.0425 66.2903 77.3715 67.1236 76.0679C67.5611 75.3964 68.2566 75.602 68.9609 75.6129C69.971 75.6333 70.9808 75.5593 71.9771 75.392Z" fill="#4A4347"/>
<path opacity="0.1" d="M80.4921 99.0515C80.4921 99.0515 82.0385 107.07 81.3364 110.165C80.9074 111.965 80.9709 113.848 81.5201 115.615" fill="black"/>
<path opacity="0.1" d="M55.494 102.426C55.494 102.426 54.8204 107.772 55.9424 108.896L55.494 102.426Z" fill="black"/>
<path d="M94.7705 168.304C94.8575 168.304 94.9409 168.27 95.0025 168.208C95.064 168.147 95.0985 168.063 95.0985 167.976C95.0985 167.889 95.064 167.806 95.0025 167.744C94.9409 167.683 94.8575 167.648 94.7705 167.648C94.6834 167.648 94.6 167.683 94.5385 167.744C94.4769 167.806 94.4424 167.889 94.4424 167.976C94.4424 168.063 94.4769 168.147 94.5385 168.208C94.6 168.27 94.6834 168.304 94.7705 168.304Z" fill="black"/>
<g opacity="0.5">
<path opacity="0.5" d="M195.793 130.082V129.9L136.116 84.0119C136.078 83.984 136.033 83.969 135.986 83.969C135.939 83.969 135.893 83.984 135.856 84.0119L76.1767 129.9V201.03H76.2904V201.143H195.909V130.014L195.793 130.082Z" fill="url(#paint1_linear)"/>
</g>
<path d="M193.733 199.046H78.2458V130.366L135.989 85.9651L193.733 130.366V199.046Z" fill="white"/>
<path d="M189.577 194.975H82.4016V131.239L135.989 90.0334L189.577 131.239V194.975Z" fill="#E0E0E0"/>
<path d="M154.169 89.0811L88.7922 106.22L110.59 189.369L175.967 172.23L154.169 89.0811Z" fill="#82DB35"/>
<path d="M170.11 101.713H102.524V187.672H170.11V101.713Z" fill="#F5F5F5"/>
<path opacity="0.05" d="M78.7926 130.476L136.536 164.815L78.7926 199.155V130.476Z" fill="black"/>
<path d="M78.3552 130.476L136.099 164.815L78.3552 199.155V130.476Z" fill="white"/>
<path opacity="0.05" d="M193.404 130.476L135.661 164.815L193.404 199.155V130.476Z" fill="black"/>
<path d="M193.842 130.476L136.099 164.815L193.842 199.155V130.476Z" fill="white"/>
<path opacity="0.05" d="M78.3552 198.062L136.099 153.004L193.842 198.062H78.3552Z" fill="black"/>
<path d="M78.3552 199.155L136.099 154.098L193.842 199.155H78.3552Z" fill="white"/>
<path d="M90.0898 204.372C90.0898 204.372 87.1895 194.529 90.6344 187.281C92.0981 184.251 92.5394 180.828 91.892 177.526C91.5727 175.961 91.1108 174.428 90.5119 172.948" stroke="#535461" stroke-width="2" stroke-miterlimit="10"/>
<path d="M92.6532 168.368C92.6532 169.575 90.466 173.072 90.466 173.072C90.466 173.072 88.2787 169.573 88.2787 168.368C88.2787 167.788 88.5092 167.231 88.9193 166.821C89.3295 166.411 89.8859 166.18 90.466 166.18C91.0461 166.18 91.6024 166.411 92.0126 166.821C92.4228 167.231 92.6532 167.788 92.6532 168.368Z" fill="#82DB35"/>
<path d="M96.2731 175.052C95.6169 176.064 91.8811 177.814 91.8811 177.814C91.8811 177.814 91.9489 173.689 92.6051 172.676C92.9322 172.218 93.4233 171.904 93.9763 171.799C94.5292 171.694 95.1015 171.806 95.5739 172.112C96.0464 172.418 96.3827 172.894 96.5129 173.442C96.6432 173.989 96.5573 174.566 96.2731 175.052Z" fill="#82DB35"/>
<path d="M96.1069 186.471C95.0286 187.014 90.9209 186.64 90.9209 186.64C90.9209 186.64 93.0622 183.114 94.1384 182.572C94.3959 182.427 94.68 182.337 94.9734 182.306C95.2669 182.274 95.5636 182.302 95.8459 182.389C96.1281 182.475 96.3899 182.618 96.6156 182.808C96.8413 182.998 97.0262 183.232 97.1591 183.495C97.292 183.759 97.3703 184.046 97.3891 184.341C97.4079 184.635 97.3669 184.931 97.2686 185.209C97.1703 185.487 97.0167 185.743 96.8171 185.96C96.6174 186.177 96.3758 186.352 96.1069 186.474V186.471Z" fill="#82DB35"/>
<path d="M94.0421 195.087C93.071 195.804 88.9589 196.128 88.9589 196.128C88.9589 196.128 90.4725 192.292 91.4437 191.574C91.9109 191.263 92.4802 191.142 93.0336 191.239C93.5869 191.336 94.0819 191.641 94.416 192.093C94.75 192.545 94.8975 193.107 94.8279 193.665C94.7583 194.222 94.477 194.731 94.0421 195.087Z" fill="#82DB35"/>
<path d="M87.2857 178.046C88.1606 178.886 92.1829 179.759 92.1829 179.759C92.1829 179.759 91.1965 175.754 90.3303 174.914C89.909 174.542 89.3605 174.346 88.7986 174.367C88.2368 174.389 87.7047 174.626 87.3129 175.029C86.9211 175.432 86.6997 175.971 86.6946 176.533C86.6896 177.095 86.9012 177.638 87.2857 178.048V178.046Z" fill="#82DB35"/>
<path d="M84.9978 188.153C86.0761 188.696 90.1838 188.322 90.1838 188.322C90.1838 188.322 88.0425 184.796 86.9664 184.254C86.4525 184.021 85.8688 183.997 85.3372 184.184C84.8055 184.372 84.3669 184.758 84.1129 185.262C83.859 185.765 83.8092 186.347 83.9741 186.886C84.139 187.426 84.5057 187.88 84.9978 188.156V188.153Z" fill="#82DB35"/>
<path d="M84.1229 198.28C85.0941 198.998 89.2061 199.322 89.2061 199.322C89.2061 199.322 87.6925 195.485 86.7214 194.768C86.4921 194.58 86.2271 194.441 85.9426 194.359C85.658 194.277 85.3597 194.254 85.0658 194.291C84.7719 194.327 84.4885 194.423 84.2329 194.573C83.9772 194.722 83.7545 194.922 83.5784 195.16C83.4023 195.398 83.2763 195.67 83.2082 195.958C83.1401 196.246 83.1312 196.545 83.1821 196.837C83.2331 197.129 83.3427 197.407 83.5044 197.655C83.6661 197.903 83.8766 198.116 84.1229 198.28Z" fill="#82DB35"/>
<path opacity="0.5" d="M133.583 105.65H106.461V107.838H133.583V105.65Z" fill="#82DB35"/>
<path opacity="0.5" d="M165.08 114.399H106.461V116.587H165.08V114.399Z" fill="#82DB35"/>
<path opacity="0.5" d="M165.08 120.086H106.461V122.273H165.08V120.086Z" fill="#82DB35"/>
<path opacity="0.4" d="M165.08 125.773H106.461V127.96H165.08V125.773Z" fill="#82DB35"/>
<path opacity="0.4" d="M165.08 131.46H106.461V133.647H165.08V131.46Z" fill="#82DB35"/>
<path opacity="0.3" d="M139.926 137.147H106.461V139.334H139.926V137.147Z" fill="#82DB35"/>
<path opacity="0.3" d="M152.175 142.834H106.461V145.021H152.175V142.834Z" fill="#82DB35"/>
<defs>
<linearGradient id="paint0_linear" x1="45.9401" y1="135.469" x2="92.7516" y2="135.469" gradientUnits="userSpaceOnUse">
<stop stop-color="#808080" stop-opacity="0.25"/>
<stop offset="0.54" stop-color="#808080" stop-opacity="0.12"/>
<stop offset="1" stop-color="#808080" stop-opacity="0.1"/>
</linearGradient>
<linearGradient id="paint1_linear" x1="76325.2" y1="86857.5" x2="76325.2" y2="24081.3" gradientUnits="userSpaceOnUse">
<stop stop-color="#808080" stop-opacity="0.25"/>
<stop offset="0.54" stop-color="#808080" stop-opacity="0.12"/>
<stop offset="1" stop-color="#808080" stop-opacity="0.1"/>
</linearGradient>
</defs>
</svg>
