<svg width="25" height="25" viewBox="0 0 25 25" fill="none" xmlns="http://www.w3.org/2000/svg">
<path d="M12.6074 8.06631C15.2822 8.06631 17.4582 10.2425 17.4582 12.9171C17.4582 13.3031 17.7713 13.6162 18.1573 13.6162C18.5433 13.6162 18.8563 13.3031 18.8563 12.9171C18.8563 9.47152 16.053 6.66821 12.6074 6.66821C9.16182 6.66821 6.3584 9.47152 6.3584 12.9171C6.3584 16.3627 9.1617 19.166 12.6073 19.166C14.8198 19.166 16.8884 17.9782 18.0058 16.0661C18.2006 15.7328 18.0883 15.3047 17.755 15.1098C17.4218 14.9152 16.9936 15.0274 16.7987 15.3607C15.9309 16.8456 14.3249 17.7679 12.6072 17.7679C9.9324 17.7679 7.75638 15.5918 7.75638 12.9171C7.75638 10.2425 9.93264 8.06631 12.6074 8.06631Z" fill="#82DB35"/>
<path d="M24.5739 11.9908C24.1358 6.15847 19.4095 1.41391 13.5803 0.954286C10.0566 0.676414 6.60971 1.94356 4.12261 4.43077C1.63539 6.91799 0.368248 10.3651 0.64612 13.8884C1.10411 19.696 5.82875 24.4207 11.6362 24.8785C11.9563 24.9038 12.2752 24.9162 12.5932 24.9162C15.7773 24.9162 18.8326 23.6634 21.0939 21.4022C21.3669 21.1291 21.3669 20.6865 21.0939 20.4136C20.8209 20.1407 20.3783 20.1405 20.1053 20.4135C17.9077 22.6109 14.8611 23.7305 11.7462 23.4848C6.61717 23.0804 2.44442 18.9076 2.03991 13.7785C1.79431 10.6636 2.91372 7.61669 5.11118 5.41935C7.30864 3.22189 10.355 2.10201 13.4703 2.34807C18.6187 2.75387 22.7928 6.94444 23.1797 12.0954C23.2327 12.8011 23.2171 13.51 23.1335 14.2025C23.0447 14.937 22.6001 15.5779 21.9442 15.9167C21.3506 16.2235 20.6837 16.2223 20.1143 15.9137C19.7749 15.7294 19.3505 15.8556 19.1666 16.1951C18.9825 16.5345 19.1085 16.9588 19.448 17.1427C20.4307 17.6755 21.5744 17.6814 22.5859 17.1589C23.6536 16.6074 24.3772 15.5649 24.5214 14.3703C24.6161 13.5875 24.6336 12.787 24.5739 11.9908Z" fill="#82DB35"/>
</svg>
