<svg width="25" height="25" viewBox="0 0 25 25" fill="none" xmlns="http://www.w3.org/2000/svg">
<path d="M21.0938 16.2759C19.7868 14.9722 18.2311 14.0071 16.5338 13.4228C18.3517 12.1739 19.546 10.0837 19.546 7.72016C19.546 3.90439 16.4338 0.800003 12.6085 0.800003C8.78319 0.800003 5.67102 3.90439 5.67102 7.72016C5.67102 10.0837 6.86535 12.1739 8.6833 13.4228C6.98596 14.0071 5.43027 14.9722 4.12326 16.2759C1.85676 18.5368 0.608521 21.5427 0.608521 24.74H2.48352C2.48352 19.171 7.02557 14.6403 12.6085 14.6403C18.1915 14.6403 22.7335 19.171 22.7335 24.74H24.6085C24.6085 21.5427 23.3603 18.5368 21.0938 16.2759ZM12.6085 12.77C9.81707 12.77 7.54602 10.5047 7.54602 7.72016C7.54602 4.93564 9.81707 2.67032 12.6085 2.67032C15.4 2.67032 17.671 4.93564 17.671 7.72016C17.671 10.5047 15.4 12.77 12.6085 12.77Z" fill="#82DB35"/>
</svg>
