<svg width="25" height="24" viewBox="0 0 25 24" fill="none" xmlns="http://www.w3.org/2000/svg">
<path d="M12.6086 11.0649C14.035 11.0637 15.19 9.90619 15.1886 8.47993C15.1873 7.05368 14.0298 5.89853 12.6034 5.89993C11.1773 5.90134 10.0222 7.05868 10.0236 8.48493C10.0281 9.90993 11.1836 11.0631 12.6086 11.0649ZM12.6086 6.89993C13.4839 6.89993 14.1936 7.60947 14.1936 8.48493C14.1936 9.36025 13.4839 10.0699 12.6086 10.0699C11.7331 10.0699 11.0236 9.36025 11.0236 8.48493C11.0237 7.60962 11.7334 6.90009 12.6086 6.89993Z" fill="#82DB35"/>
<path d="M9.13855 16.6299H16.0784C16.3545 16.6293 16.5776 16.4059 16.5784 16.1299C16.5784 14.9999 16.1685 13.9599 15.4185 13.1949C14.6767 12.4431 13.6646 12.0199 12.6085 12.0199C11.5525 12.0199 10.5404 12.4431 9.79855 13.1949C9.04855 13.9599 8.63855 14.9999 8.63855 16.1299C8.63933 16.4059 8.86261 16.6293 9.13855 16.6299ZM10.5135 13.8949C11.067 13.3351 11.8214 13.0199 12.6085 13.0199C13.3956 13.0199 14.1501 13.3351 14.7034 13.8949C15.1623 14.3684 15.4568 14.9765 15.5435 15.6299H9.67355C9.75917 14.9762 10.0539 14.3674 10.5135 13.8949Z" fill="#82DB35"/>
<path d="M19.1085 1.69992H14.6085V0.499924C14.6077 0.224142 14.3843 0.000704954 14.1085 -7.62939e-05H11.1085C10.8327 0.000704954 10.6093 0.224142 10.6085 0.499924V1.69992H6.10852C4.72805 1.70055 3.60915 2.81945 3.60852 4.19992V21.3999C3.60915 22.7804 4.72805 23.8993 6.10852 23.8999H19.1085C20.489 23.8993 21.6079 22.7804 21.6085 21.3999V4.19992C21.6079 2.81945 20.489 1.70055 19.1085 1.69992ZM11.6085 0.999924H13.6085V2.99992H11.6085V0.999924ZM20.6085 21.3999C20.6062 22.2273 19.9359 22.8976 19.1085 22.8999H6.10852C5.28118 22.8976 4.61086 22.2273 4.60852 21.3999V4.19992C4.61086 3.37258 5.28118 2.70227 6.10852 2.69992H10.6085V3.49992C10.6093 3.7757 10.8327 3.99914 11.1085 3.99992H14.1085C14.3843 3.99914 14.6077 3.7757 14.6085 3.49992V2.69992H19.1085C19.9359 2.70227 20.6062 3.37258 20.6085 4.19992V21.3999Z" fill="#82DB35"/>
<path d="M18.0185 20.1999H7.19849C6.92239 20.1999 6.69849 20.4237 6.69849 20.6999C6.69849 20.9762 6.92239 21.1999 7.19849 21.1999H18.0235C18.2997 21.1985 18.5224 20.9735 18.521 20.6974C18.5196 20.4212 18.2946 20.1985 18.0185 20.1999Z" fill="#82DB35"/>
<path d="M9.69849 17.9999C9.42239 17.9999 9.19849 18.2237 9.19849 18.4999C9.19849 18.7762 9.42239 18.9999 9.69849 18.9999H15.5235C15.7997 18.9999 16.0235 18.7762 16.0235 18.4999C16.0235 18.2237 15.7997 17.9999 15.5235 17.9999H9.69849Z" fill="#82DB35"/>
</svg>
