<svg width="25" height="25" viewBox="0 0 25 25" fill="none" xmlns="http://www.w3.org/2000/svg">
<path d="M20.2713 10.7082H19.9184V7.58144C19.9184 3.54001 16.6325 0.249207 12.5862 0.249207C8.54473 0.249207 5.25392 3.53504 5.25392 7.58144C5.25392 13.436 5.60192 10.7082 5.97474 10.7082C6.34757 10.7082 6.64828 15.2845 6.59609 7.58144C6.57373 4.28077 9.28043 1.59138 12.5862 1.59138C15.8869 1.59138 18.5762 4.27572 18.5762 7.58144V10.7082H4.90595C4.19013 10.7082 3.60852 11.2898 3.60852 12.0056V20.3619C3.60852 22.5044 5.35334 24.2492 7.49584 24.2492H17.6814C19.8239 24.2492 21.5688 22.5044 21.5688 20.3619V12.0056C21.5688 11.2898 20.9871 10.7082 20.2713 10.7082ZM20.2266 20.3619C20.2266 21.7637 19.0882 22.907 17.6814 22.907H7.50082C6.09899 22.907 4.95566 21.7687 4.95566 20.3619V12.0504H20.2266V20.3619Z" fill="#82DB35"/>
<path d="M12.591 20.0885C13.978 20.0885 15.1014 18.96 15.1014 17.5781C15.1014 16.1912 13.973 15.0677 12.591 15.0677C11.2041 15.0677 10.0807 16.1962 10.0807 17.5781C10.0807 18.96 11.2041 20.0885 12.591 20.0885ZM12.591 16.4049C13.2373 16.4049 13.7592 16.9319 13.7592 17.5731C13.7592 18.2144 13.2373 18.7463 12.591 18.7463C11.9448 18.7463 11.4229 18.2194 11.4229 17.5781C11.4229 16.9368 11.9448 16.4049 12.591 16.4049Z" fill="#82DB35"/>
</svg>
