<svg width="18" height="25" viewBox="0 0 18 25" fill="none" xmlns="http://www.w3.org/2000/svg">
<path d="M16.6997 10.4821H16.346V7.34846C16.346 3.29809 13.0529 0 8.99751 0C4.94714 0 1.64905 3.29311 1.64905 7.34846C1.64905 7.72212 1.94797 8.02104 2.32162 8.02104C2.69527 8.02104 2.99419 7.72212 2.99419 7.34846C2.99419 4.04041 5.68447 1.34514 8.99751 1.34514C12.3056 1.34514 15.0008 4.03543 15.0008 7.34846V10.4821H1.3003C0.582895 10.4821 0 11.065 0 11.7825V20.1572C0 22.3045 1.74869 24.0531 3.89593 24.0531H14.1041C16.2513 24.0531 18 22.3045 18 20.1572V11.7825C18 11.065 17.4171 10.4821 16.6997 10.4821ZM16.6549 20.1572C16.6549 21.5621 15.514 22.708 14.1041 22.708H3.90091C2.49599 22.708 1.35012 21.5671 1.35012 20.1572V11.8273H16.6549V20.1572Z" fill="#82DB35"/>
<path d="M9.00224 19.8834C10.3922 19.8834 11.5182 18.7525 11.5182 17.3675C11.5182 15.9775 10.3872 14.8516 9.00224 14.8516C7.61226 14.8516 6.48633 15.9825 6.48633 17.3675C6.48633 18.7525 7.61226 19.8834 9.00224 19.8834ZM9.00224 16.1917C9.6499 16.1917 10.173 16.7198 10.173 17.3625C10.173 18.0052 9.6499 18.5382 9.00224 18.5382C8.35458 18.5382 7.83147 18.0102 7.83147 17.3675C7.83147 16.7248 8.35458 16.1917 9.00224 16.1917Z" fill="#82DB35"/>
</svg>
