<?xml version="1.0" encoding="utf-8"?>
<!-- Generator: Adobe Illustrator 16.0.0, SVG Export Plug-In . SVG Version: 6.00 Build 0)  -->
<!DOCTYPE svg PUBLIC "-//W3C//DTD SVG 1.1//EN" "http://www.w3.org/Graphics/SVG/1.1/DTD/svg11.dtd">
<svg version="1.1" id="Calque_1" xmlns="http://www.w3.org/2000/svg" xmlns:xlink="http://www.w3.org/1999/xlink" x="0px" y="0px"
	 width="29.932px" height="30.2px" viewBox="0 0 29.932 30.2" enable-background="new 0 0 29.932 30.2" xml:space="preserve">
<g>
	<path fill-rule="evenodd" clip-rule="evenodd" fill="#FFFFFF" d="M0.539,13.039c0-0.617,0-1.234,0-1.851
		c0.025-0.12,0.058-0.239,0.076-0.36c0.694-4.738,3.288-7.944,7.79-9.563c0.845-0.304,1.764-0.401,2.649-0.593
		c0.617,0,1.234,0,1.851,0c0.331,0.055,0.66,0.112,0.991,0.164c6.242,0.976,10.595,7.26,9.322,13.447
		c-0.331,1.612-0.956,3.093-1.905,4.455c0.117,0.123,0.22,0.236,0.328,0.344c2.269,2.269,4.534,4.543,6.812,6.804
		c0.426,0.422,0.942,1.455,0.942,1.455s0,0.337,0,0.505c-0.227,0.895-0.79,1.453-1.683,1.683c-0.168,0-0.505,0-0.505,0
		s-1.052-0.536-1.483-0.97c-2.251-2.269-4.516-4.524-6.776-6.783c-0.108-0.108-0.221-0.211-0.34-0.325
		c-0.13,0.086-0.246,0.162-0.361,0.238c-1.703,1.111-3.572,1.731-5.599,1.851c-5.159,0.305-9.902-2.902-11.509-7.809
		C0.854,14.859,0.734,13.937,0.539,13.039z M20.728,12.121c0.003-4.824-3.909-8.749-8.731-8.756
		c-4.828-0.008-8.754,3.897-8.766,8.719c-0.013,4.845,3.91,8.779,8.75,8.778C16.803,20.861,20.725,16.942,20.728,12.121z"/>
</g>
</svg>
